<mxfile host="app.diagrams.net" modified="2023-07-02T14:05:17.308Z" agent="Mozilla/5.0 (X11; Linux x86_64; rv:109.0) Gecko/20100101 Firefox/114.0" etag="9l0O9FB4QpPGcJ4y5o36" version="21.5.2" type="github">
  <diagram name="Pagina-1" id="vHMLkRZ3YX_lc3uv7wbU">
    <mxGraphModel dx="880" dy="485" grid="1" gridSize="10" guides="1" tooltips="1" connect="1" arrows="1" fold="1" page="1" pageScale="1" pageWidth="827" pageHeight="1169" math="0" shadow="0">
      <root>
        <mxCell id="0" />
        <mxCell id="1" parent="0" />
        <mxCell id="fcbKGA5XvLRlnjNxsgio-3" value="" style="edgeStyle=orthogonalEdgeStyle;rounded=0;orthogonalLoop=1;jettySize=auto;html=1;" edge="1" parent="1" source="fcbKGA5XvLRlnjNxsgio-1" target="fcbKGA5XvLRlnjNxsgio-2">
          <mxGeometry relative="1" as="geometry" />
        </mxCell>
        <mxCell id="fcbKGA5XvLRlnjNxsgio-1" value="Wait request" style="rounded=0;whiteSpace=wrap;html=1;" vertex="1" parent="1">
          <mxGeometry x="350" y="230" width="120" height="60" as="geometry" />
        </mxCell>
        <mxCell id="fcbKGA5XvLRlnjNxsgio-5" style="edgeStyle=orthogonalEdgeStyle;rounded=0;orthogonalLoop=1;jettySize=auto;html=1;entryX=0;entryY=0.5;entryDx=0;entryDy=0;" edge="1" parent="1" source="fcbKGA5XvLRlnjNxsgio-2" target="fcbKGA5XvLRlnjNxsgio-4">
          <mxGeometry relative="1" as="geometry" />
        </mxCell>
        <mxCell id="fcbKGA5XvLRlnjNxsgio-10" style="edgeStyle=orthogonalEdgeStyle;rounded=0;orthogonalLoop=1;jettySize=auto;html=1;" edge="1" parent="1" source="fcbKGA5XvLRlnjNxsgio-2" target="fcbKGA5XvLRlnjNxsgio-11">
          <mxGeometry relative="1" as="geometry">
            <mxPoint x="210" y="450" as="targetPoint" />
          </mxGeometry>
        </mxCell>
        <mxCell id="fcbKGA5XvLRlnjNxsgio-2" value="&lt;div&gt;Instruction&lt;/div&gt;&lt;div&gt;Request&lt;br&gt;&lt;/div&gt;" style="rhombus;whiteSpace=wrap;html=1;" vertex="1" parent="1">
          <mxGeometry x="370" y="340" width="80" height="80" as="geometry" />
        </mxCell>
        <mxCell id="fcbKGA5XvLRlnjNxsgio-6" style="edgeStyle=orthogonalEdgeStyle;rounded=0;orthogonalLoop=1;jettySize=auto;html=1;entryX=1.017;entryY=0.383;entryDx=0;entryDy=0;entryPerimeter=0;" edge="1" parent="1" source="fcbKGA5XvLRlnjNxsgio-4" target="fcbKGA5XvLRlnjNxsgio-1">
          <mxGeometry relative="1" as="geometry">
            <Array as="points">
              <mxPoint x="630" y="253" />
            </Array>
          </mxGeometry>
        </mxCell>
        <mxCell id="fcbKGA5XvLRlnjNxsgio-22" value="" style="edgeStyle=orthogonalEdgeStyle;rounded=0;orthogonalLoop=1;jettySize=auto;html=1;" edge="1" parent="1" source="fcbKGA5XvLRlnjNxsgio-4" target="fcbKGA5XvLRlnjNxsgio-21">
          <mxGeometry relative="1" as="geometry" />
        </mxCell>
        <mxCell id="fcbKGA5XvLRlnjNxsgio-4" value="&lt;div&gt;data&lt;/div&gt;&lt;div&gt;request&lt;br&gt;&lt;/div&gt;" style="rhombus;whiteSpace=wrap;html=1;" vertex="1" parent="1">
          <mxGeometry x="590" y="340" width="80" height="80" as="geometry" />
        </mxCell>
        <mxCell id="fcbKGA5XvLRlnjNxsgio-8" value="0" style="text;html=1;strokeColor=none;fillColor=none;align=center;verticalAlign=middle;whiteSpace=wrap;rounded=0;" vertex="1" parent="1">
          <mxGeometry x="440" y="350" width="60" height="30" as="geometry" />
        </mxCell>
        <mxCell id="fcbKGA5XvLRlnjNxsgio-9" value="0" style="text;html=1;strokeColor=none;fillColor=none;align=center;verticalAlign=middle;whiteSpace=wrap;rounded=0;" vertex="1" parent="1">
          <mxGeometry x="620" y="310" width="60" height="30" as="geometry" />
        </mxCell>
        <mxCell id="fcbKGA5XvLRlnjNxsgio-13" value="" style="edgeStyle=orthogonalEdgeStyle;rounded=0;orthogonalLoop=1;jettySize=auto;html=1;" edge="1" parent="1" source="fcbKGA5XvLRlnjNxsgio-11" target="fcbKGA5XvLRlnjNxsgio-12">
          <mxGeometry relative="1" as="geometry" />
        </mxCell>
        <mxCell id="fcbKGA5XvLRlnjNxsgio-11" value="&lt;div&gt;Instruction fetch&lt;/div&gt;&lt;div&gt;request&lt;br&gt;&lt;/div&gt;" style="rounded=0;whiteSpace=wrap;html=1;" vertex="1" parent="1">
          <mxGeometry x="160" y="460" width="120" height="60" as="geometry" />
        </mxCell>
        <mxCell id="fcbKGA5XvLRlnjNxsgio-16" style="edgeStyle=orthogonalEdgeStyle;rounded=0;orthogonalLoop=1;jettySize=auto;html=1;" edge="1" parent="1" source="fcbKGA5XvLRlnjNxsgio-12" target="fcbKGA5XvLRlnjNxsgio-15">
          <mxGeometry relative="1" as="geometry" />
        </mxCell>
        <mxCell id="fcbKGA5XvLRlnjNxsgio-12" value="&lt;div&gt;Instruction ready&lt;br&gt;&lt;/div&gt;" style="whiteSpace=wrap;html=1;rounded=0;" vertex="1" parent="1">
          <mxGeometry x="160" y="570" width="120" height="60" as="geometry" />
        </mxCell>
        <mxCell id="fcbKGA5XvLRlnjNxsgio-17" style="edgeStyle=orthogonalEdgeStyle;rounded=0;orthogonalLoop=1;jettySize=auto;html=1;entryX=0;entryY=0.5;entryDx=0;entryDy=0;" edge="1" parent="1" source="fcbKGA5XvLRlnjNxsgio-15" target="fcbKGA5XvLRlnjNxsgio-1">
          <mxGeometry relative="1" as="geometry">
            <Array as="points">
              <mxPoint x="90" y="720" />
              <mxPoint x="90" y="260" />
            </Array>
          </mxGeometry>
        </mxCell>
        <mxCell id="fcbKGA5XvLRlnjNxsgio-18" style="edgeStyle=orthogonalEdgeStyle;rounded=0;orthogonalLoop=1;jettySize=auto;html=1;entryX=1;entryY=0.5;entryDx=0;entryDy=0;" edge="1" parent="1" source="fcbKGA5XvLRlnjNxsgio-15" target="fcbKGA5XvLRlnjNxsgio-12">
          <mxGeometry relative="1" as="geometry">
            <Array as="points">
              <mxPoint x="300" y="720" />
              <mxPoint x="300" y="600" />
            </Array>
          </mxGeometry>
        </mxCell>
        <mxCell id="fcbKGA5XvLRlnjNxsgio-15" value="&lt;div&gt;Instruction&lt;/div&gt;&lt;div&gt;Request&lt;br&gt;&lt;/div&gt;" style="rhombus;whiteSpace=wrap;html=1;" vertex="1" parent="1">
          <mxGeometry x="180" y="680" width="80" height="80" as="geometry" />
        </mxCell>
        <mxCell id="fcbKGA5XvLRlnjNxsgio-19" value="0" style="text;html=1;strokeColor=none;fillColor=none;align=center;verticalAlign=middle;whiteSpace=wrap;rounded=0;" vertex="1" parent="1">
          <mxGeometry x="140" y="690" width="60" height="30" as="geometry" />
        </mxCell>
        <mxCell id="fcbKGA5XvLRlnjNxsgio-20" value="1" style="text;html=1;strokeColor=none;fillColor=none;align=center;verticalAlign=middle;whiteSpace=wrap;rounded=0;" vertex="1" parent="1">
          <mxGeometry x="240" y="690" width="60" height="30" as="geometry" />
        </mxCell>
        <mxCell id="fcbKGA5XvLRlnjNxsgio-25" style="edgeStyle=orthogonalEdgeStyle;rounded=0;orthogonalLoop=1;jettySize=auto;html=1;entryX=0.5;entryY=0;entryDx=0;entryDy=0;" edge="1" parent="1" source="fcbKGA5XvLRlnjNxsgio-21" target="fcbKGA5XvLRlnjNxsgio-23">
          <mxGeometry relative="1" as="geometry" />
        </mxCell>
        <mxCell id="fcbKGA5XvLRlnjNxsgio-26" style="edgeStyle=orthogonalEdgeStyle;rounded=0;orthogonalLoop=1;jettySize=auto;html=1;entryX=0.583;entryY=0.05;entryDx=0;entryDy=0;entryPerimeter=0;" edge="1" parent="1" source="fcbKGA5XvLRlnjNxsgio-21" target="fcbKGA5XvLRlnjNxsgio-24">
          <mxGeometry relative="1" as="geometry">
            <Array as="points">
              <mxPoint x="760" y="510" />
              <mxPoint x="760" y="558" />
            </Array>
          </mxGeometry>
        </mxCell>
        <mxCell id="fcbKGA5XvLRlnjNxsgio-21" value="&lt;div&gt;Memory &lt;br&gt;&lt;/div&gt;&lt;div&gt;Request&lt;/div&gt;&lt;div&gt;dir&lt;br&gt;&lt;/div&gt;" style="rhombus;whiteSpace=wrap;html=1;" vertex="1" parent="1">
          <mxGeometry x="590" y="470" width="80" height="80" as="geometry" />
        </mxCell>
        <mxCell id="fcbKGA5XvLRlnjNxsgio-28" style="edgeStyle=orthogonalEdgeStyle;rounded=0;orthogonalLoop=1;jettySize=auto;html=1;entryX=0;entryY=0.5;entryDx=0;entryDy=0;" edge="1" parent="1" source="fcbKGA5XvLRlnjNxsgio-23" target="fcbKGA5XvLRlnjNxsgio-27">
          <mxGeometry relative="1" as="geometry">
            <Array as="points">
              <mxPoint x="490" y="680" />
            </Array>
          </mxGeometry>
        </mxCell>
        <mxCell id="fcbKGA5XvLRlnjNxsgio-23" value="Data fetch WR" style="rounded=0;whiteSpace=wrap;html=1;" vertex="1" parent="1">
          <mxGeometry x="430" y="550" width="120" height="60" as="geometry" />
        </mxCell>
        <mxCell id="fcbKGA5XvLRlnjNxsgio-29" style="edgeStyle=orthogonalEdgeStyle;rounded=0;orthogonalLoop=1;jettySize=auto;html=1;entryX=1;entryY=0.5;entryDx=0;entryDy=0;" edge="1" parent="1" source="fcbKGA5XvLRlnjNxsgio-24" target="fcbKGA5XvLRlnjNxsgio-27">
          <mxGeometry relative="1" as="geometry">
            <Array as="points">
              <mxPoint x="760" y="680" />
            </Array>
          </mxGeometry>
        </mxCell>
        <mxCell id="fcbKGA5XvLRlnjNxsgio-24" value="Data fetch RD" style="rounded=0;whiteSpace=wrap;html=1;" vertex="1" parent="1">
          <mxGeometry x="700" y="555" width="120" height="60" as="geometry" />
        </mxCell>
        <mxCell id="fcbKGA5XvLRlnjNxsgio-31" style="edgeStyle=orthogonalEdgeStyle;rounded=0;orthogonalLoop=1;jettySize=auto;html=1;entryX=0.5;entryY=0;entryDx=0;entryDy=0;" edge="1" parent="1" source="fcbKGA5XvLRlnjNxsgio-27" target="fcbKGA5XvLRlnjNxsgio-30">
          <mxGeometry relative="1" as="geometry" />
        </mxCell>
        <mxCell id="fcbKGA5XvLRlnjNxsgio-27" value="Data ready" style="rounded=0;whiteSpace=wrap;html=1;" vertex="1" parent="1">
          <mxGeometry x="570" y="650" width="120" height="60" as="geometry" />
        </mxCell>
        <mxCell id="fcbKGA5XvLRlnjNxsgio-32" style="edgeStyle=orthogonalEdgeStyle;rounded=0;orthogonalLoop=1;jettySize=auto;html=1;" edge="1" parent="1" source="fcbKGA5XvLRlnjNxsgio-30">
          <mxGeometry relative="1" as="geometry">
            <mxPoint x="760" y="680" as="targetPoint" />
          </mxGeometry>
        </mxCell>
        <mxCell id="fcbKGA5XvLRlnjNxsgio-33" style="edgeStyle=orthogonalEdgeStyle;rounded=0;orthogonalLoop=1;jettySize=auto;html=1;" edge="1" parent="1" source="fcbKGA5XvLRlnjNxsgio-30">
          <mxGeometry relative="1" as="geometry">
            <mxPoint x="90" y="720" as="targetPoint" />
          </mxGeometry>
        </mxCell>
        <mxCell id="fcbKGA5XvLRlnjNxsgio-30" value="&lt;div&gt;Data&lt;/div&gt;&lt;div&gt;Request&lt;br&gt;&lt;/div&gt;" style="rhombus;whiteSpace=wrap;html=1;" vertex="1" parent="1">
          <mxGeometry x="590" y="750" width="80" height="80" as="geometry" />
        </mxCell>
        <mxCell id="fcbKGA5XvLRlnjNxsgio-34" value="0" style="text;html=1;strokeColor=none;fillColor=none;align=center;verticalAlign=middle;whiteSpace=wrap;rounded=0;" vertex="1" parent="1">
          <mxGeometry x="540" y="760" width="60" height="30" as="geometry" />
        </mxCell>
        <mxCell id="fcbKGA5XvLRlnjNxsgio-35" value="1" style="text;html=1;strokeColor=none;fillColor=none;align=center;verticalAlign=middle;whiteSpace=wrap;rounded=0;" vertex="1" parent="1">
          <mxGeometry x="660" y="760" width="60" height="30" as="geometry" />
        </mxCell>
        <mxCell id="fcbKGA5XvLRlnjNxsgio-36" value="0" style="text;html=1;strokeColor=none;fillColor=none;align=center;verticalAlign=middle;whiteSpace=wrap;rounded=0;" vertex="1" parent="1">
          <mxGeometry x="540" y="470" width="60" height="30" as="geometry" />
        </mxCell>
        <mxCell id="fcbKGA5XvLRlnjNxsgio-37" value="1" style="text;html=1;strokeColor=none;fillColor=none;align=center;verticalAlign=middle;whiteSpace=wrap;rounded=0;" vertex="1" parent="1">
          <mxGeometry x="660" y="470" width="60" height="30" as="geometry" />
        </mxCell>
        <mxCell id="fcbKGA5XvLRlnjNxsgio-38" value="1" style="text;html=1;strokeColor=none;fillColor=none;align=center;verticalAlign=middle;whiteSpace=wrap;rounded=0;" vertex="1" parent="1">
          <mxGeometry x="620" y="410" width="60" height="30" as="geometry" />
        </mxCell>
        <mxCell id="fcbKGA5XvLRlnjNxsgio-39" value="1" style="text;html=1;strokeColor=none;fillColor=none;align=center;verticalAlign=middle;whiteSpace=wrap;rounded=0;" vertex="1" parent="1">
          <mxGeometry x="320" y="350" width="60" height="30" as="geometry" />
        </mxCell>
      </root>
    </mxGraphModel>
  </diagram>
</mxfile>
